<?xml version="1.0" encoding="iso-8859-1"?>
<!-- Generator: Adobe Illustrator 19.0.0, SVG Export Plug-In . SVG Version: 6.00 Build 0)  -->
<svg version="1.1" id="Capa_1" xmlns="http://www.w3.org/2000/svg" xmlns:xlink="http://www.w3.org/1999/xlink" x="0px" y="0px"
	 viewBox="0 0 512 512" style="enable-background:new 0 0 512 512;" xml:space="preserve">
<g>
	<g>
		<path d="M437.019,74.98C388.667,26.629,324.38,0,256,0S123.333,26.629,74.981,74.98C26.629,123.333,0,187.62,0,256
			s26.629,132.667,74.981,181.02C123.333,485.371,187.62,512,256,512s132.667-26.629,181.019-74.98
			C485.371,388.667,512,324.38,512,256S485.371,123.333,437.019,74.98z M481.181,185.311l-58.037,15.551
			c-7.656-23.148-19.993-44.18-35.887-61.975l42.457-42.457C452.887,121.637,470.663,151.879,481.181,185.311z M412,256
			c0,86.019-69.981,156-156,156s-156-69.981-156-156s69.981-156,156-156S412,169.981,412,256z M326.689,30.819
			c33.433,10.518,63.674,28.294,88.882,51.468l-42.457,42.457c-17.795-15.895-38.827-28.232-61.976-35.888L326.689,30.819z M256,20
			c17.639,0,34.826,1.96,51.37,5.647l-15.547,58.021C280.253,81.267,268.272,80,256,80c-12.272,0-24.253,1.267-35.823,3.669
			L204.63,25.647C221.174,21.96,238.361,20,256,20z M185.31,30.819l15.551,58.037c-23.148,7.656-44.181,19.993-61.976,35.888
			L96.429,82.287C121.637,59.113,151.878,41.337,185.31,30.819z M82.287,96.429l42.457,42.457
			c-15.895,17.795-28.232,38.827-35.887,61.975L30.82,185.31C41.337,151.878,59.113,121.637,82.287,96.429z M20,256
			c0-17.639,1.96-34.826,5.647-51.37l58.022,15.546C81.267,231.747,80,243.728,80,256c0,12.272,1.267,24.254,3.669,35.824
			L25.647,307.37C21.961,290.826,20,273.639,20,256z M30.819,326.69l58.037-15.551c7.656,23.148,19.993,44.18,35.887,61.975
			l-42.457,42.457C59.113,390.363,41.338,360.122,30.819,326.69z M185.31,481.18c-33.431-10.517-63.673-28.293-88.881-51.467
			l42.457-42.457c17.795,15.895,38.827,28.232,61.975,35.887L185.31,481.18z M256,492c-17.639,0-34.826-1.96-51.37-5.647
			l15.547-58.021C231.747,430.733,243.728,432,256,432c12.272,0,24.253-1.267,35.823-3.669l15.547,58.021
			C290.826,490.04,273.639,492,256,492z M326.69,481.181l-15.551-58.037c23.148-7.656,44.18-19.993,61.975-35.887l42.457,42.457
			C390.363,452.887,360.122,470.663,326.69,481.181z M429.713,415.571l-42.457-42.457c15.895-17.795,28.232-38.827,35.887-61.974
			l58.037,15.551C470.662,360.122,452.887,390.363,429.713,415.571z M428.331,291.824C430.733,280.253,432,268.272,432,256
			c0-12.272-1.267-24.253-3.669-35.823l58.022-15.546C490.039,221.174,492,238.361,492,256c0,17.639-1.96,34.826-5.647,51.371
			L428.331,291.824z"/>
	</g>
</g>
<g>
	<g>
		<path d="M256,160c-52.935,0-96,43.065-96,96s43.065,96,96,96s96-43.065,96-96S308.935,160,256,160z M256,332
			c-41.906,0-76-34.094-76-76s34.094-76,76-76s76,34.094,76,76S297.907,332,256,332z"/>
	</g>
</g>
<g>
	<g>
		<path d="M236.59,370.388c-0.55-0.1-1.12-0.14-1.67-0.14c-4.9,0-9.04,3.5-9.85,8.34c-0.92,5.43,2.76,10.6,8.2,11.521h0.01
			c0.55,0.09,1.11,0.14,1.67,0.14c4.89,0,9.03-3.51,9.84-8.34C245.71,376.468,242.03,371.298,236.59,370.388z"/>
	</g>
</g>
<g>
	<g>
		<path d="M165.28,167.988c-1.79-1.48-4.05-2.301-6.37-2.301c-2.99,0-5.8,1.32-7.7,3.62c-0.01,0-0.01,0.011-0.01,0.011
			c-1.7,2.06-2.5,4.649-2.25,7.31s1.52,5.07,3.58,6.77c1.78,1.479,4.05,2.3,6.37,2.3c2.99,0,5.8-1.32,7.71-3.63
			C170.12,177.818,169.53,171.507,165.28,167.988z"/>
	</g>
</g>
<g>
	<g>
		<path d="M383.46,208.458c-1.46-3.89-5.22-6.51-9.37-6.51c-1.2,0-2.37,0.22-3.5,0.64c-5.16,1.92-7.8,7.69-5.87,12.86
			c1.45,3.89,5.22,6.51,9.37,6.51c1.19,0,2.36-0.22,3.49-0.64c2.5-0.931,4.49-2.78,5.6-5.21
			C384.29,213.677,384.39,210.958,383.46,208.458z"/>
	</g>
</g>
<g>
	<g>
		<path d="M202.73,362.597c-0.69-2.579-2.34-4.729-4.65-6.069h-0.01c-35.82-20.721-58.07-59.23-58.07-100.53
			c0-13.12,2.17-26,6.46-38.271c1.82-5.21-0.94-10.92-6.14-12.739c-1.07-0.37-2.18-0.561-3.3-0.561c-4.25,0-8.04,2.69-9.44,6.7
			c-5.03,14.4-7.58,29.5-7.58,44.87c0,12.34,1.66,24.57,4.92,36.36c3.16,11.42,7.82,22.409,13.86,32.64
			c11.93,20.229,28.98,37.12,49.29,48.84c1.52,0.88,3.25,1.34,4.99,1.34c3.57,0,6.89-1.91,8.67-4.99
			C203.06,367.868,203.42,365.177,202.73,362.597z"/>
	</g>
</g>
<g>
	<g>
		<path d="M358.98,167.158c-6.22-7.21-13.22-13.78-20.81-19.54c-7.65-5.811-15.92-10.8-24.59-14.86
			c-8.83-4.13-18.13-7.31-27.63-9.45c-9.77-2.199-19.84-3.31-29.94-3.31h-0.02c-12.16,0-24.23,1.61-35.87,4.79
			c-11.29,3.08-22.16,7.63-32.29,13.51c-4.77,2.76-6.4,8.89-3.63,13.67c1.78,3.07,5.1,4.98,8.66,4.98c1.75,0,3.48-0.471,5.01-1.36
			c17.58-10.2,37.68-15.59,58.13-15.59c33.73,0.01,65.75,14.67,87.84,40.229c1.9,2.21,4.66,3.471,7.57,3.471
			c2.4,0,4.72-0.87,6.53-2.431C362.12,177.658,362.58,171.337,358.98,167.158z"/>
	</g>
</g>
<g>
	<g>
		<path d="M382,245.727h-0.02v0.001c-5.52,0.011-9.99,4.5-9.98,10.021v0.25c0.02,55.77-39.7,103.72-94.44,114
			c-5.41,1.02-9,6.26-7.98,11.68c0.89,4.721,5.02,8.15,9.82,8.15c0.62,0,1.24-0.061,1.86-0.17c15.52-2.92,30.3-8.48,43.91-16.54
			c13.32-7.88,25.14-17.91,35.1-29.8c10.04-11.98,17.88-25.46,23.29-40.051c5.59-15.109,8.43-31.01,8.44-47.27v-0.3
			C391.99,250.198,387.5,245.727,382,245.727z"/>
	</g>
</g>
<g>
	<g>
		<path d="M256,246c-5.514,0-10-4.486-10-10c0-5.514,4.486-10,10-10c2.671,0,5.183,1.04,7.072,2.93
			c3.905,3.905,10.236,3.906,14.142,0.001c3.906-3.904,3.906-10.236,0.001-14.142c-3.22-3.221-7.044-5.616-11.215-7.087V206
			c0-5.522-4.477-10-10-10s-10,4.478-10,10v1.72c-11.639,4.128-20,15.243-20,28.28c0,16.542,13.458,30,30,30c5.514,0,10,4.486,10,10
			c0,5.514-4.486,10-10,10c-2.672,0-5.184-1.04-7.072-2.93c-3.904-3.906-10.236-3.909-14.142-0.003
			c-3.906,3.904-3.908,10.235-0.003,14.142c3.22,3.222,7.045,5.618,11.218,7.089V306c0,5.522,4.477,10,10,10c5.523,0,10-4.478,10-10
			v-1.72c11.639-4.128,20-15.243,20-28.28C286,259.458,272.542,246,256,246z"/>
	</g>
</g>
<g>
</g>
<g>
</g>
<g>
</g>
<g>
</g>
<g>
</g>
<g>
</g>
<g>
</g>
<g>
</g>
<g>
</g>
<g>
</g>
<g>
</g>
<g>
</g>
<g>
</g>
<g>
</g>
<g>
</g>
</svg>
