<?xml version="1.0" encoding="UTF-8"?>
<svg width="57px" height="57px" viewBox="0 0 57 57" version="1.1" xmlns="http://www.w3.org/2000/svg" xmlns:xlink="http://www.w3.org/1999/xlink">
    <!-- Generator: Sketch 44.1 (41455) - http://www.bohemiancoding.com/sketch -->
    <title>Group</title>
    <desc>Created with Sketch.</desc>
    <defs></defs>
    <g id="Page-1" stroke="none" stroke-width="1" fill="none" fill-rule="evenodd">
        <g id="Bonus-Box" transform="translate(-1247.000000, -601.000000)">
            <g id="Group" transform="translate(1248.000000, 602.000000)">
                <g id="bitcoin-symbol-inside-circulating-arrows" transform="translate(17.000000, 13.000000)" fill-rule="nonzero" fill="#262626">
                    <path d="M15.246,28.7169048 L15.246,24.9620952 C15.844125,24.8474762 16.363875,24.7024762 16.812125,24.5229524 C18.0345,24.0327143 18.9805,23.316 19.647375,22.3783333 C20.315625,21.4379048 20.64975,20.4118571 20.64975,19.3001905 C20.64975,18.3652857 20.42975,17.5215238 19.991125,16.763381 C19.553875,16.0052381 18.957125,15.4141905 18.20775,14.993 C17.689375,14.6919524 16.94,14.4157619 15.961,14.1644286 C16.874,13.8509524 17.60825,13.4601429 18.165125,12.9823333 C18.720625,12.5059048 19.14825,11.9562857 19.446625,11.3348571 C19.74225,10.7120476 19.886625,10.0547143 19.886625,9.36147619 C19.886625,8.40861905 19.608875,7.53171429 19.050625,6.73352381 C18.491,5.93533333 17.692125,5.32357143 16.654,4.89685714 C16.2525,4.73114286 15.772625,4.6082381 15.250125,4.50604762 L15.250125,0.800952381 L11.710875,0.800952381 L11.710875,4.25471429 L9.433875,4.25471429 L9.433875,0.800952381 L5.891875,0.800952381 L5.891875,4.25471429 L0.4895,4.25471429 L0.4895,7.16161905 L1.3145,7.16161905 C1.863125,7.16161905 2.23575,7.21133333 2.431,7.31214286 C2.62625,7.41295238 2.76375,7.54828571 2.8435,7.71814286 C2.92325,7.88938095 2.963125,8.28571429 2.963125,8.90714286 L2.963125,20.6217619 C2.963125,21.2321429 2.92325,21.6284762 2.8435,21.8024762 C2.762375,21.9778571 2.62625,22.1159524 2.431,22.2084762 C2.23575,22.302381 1.863125,22.3520952 1.3145,22.3520952 L0.4895,22.3520952 L0.4895,25.257619 L5.891875,25.257619 L5.891875,28.7127619 L9.433875,28.7127619 L9.433875,25.257619 L11.44825,25.257619 C11.539,25.257619 11.6215,25.2548571 11.7095,25.2548571 L11.7095,28.7127619 L15.247375,28.7127619 L15.246,28.7169048 L15.246,28.7169048 Z M8.1345,7.64771429 L10.426625,7.64771429 C11.768625,7.64771429 12.695375,7.73057143 13.215125,7.89628571 C13.734875,8.062 14.13225,8.34095238 14.40725,8.7317619 C14.68225,9.12395238 14.81975,9.59485714 14.81975,10.1472381 C14.81975,10.6789048 14.675375,11.1484286 14.38525,11.5558095 C14.095125,11.9631905 13.666125,12.267 13.091375,12.4658571 C12.518,12.6674762 11.62975,12.7682857 10.428,12.7682857 L8.135875,12.7682857 L8.135875,7.64771429 L8.1345,7.64771429 Z M10.91475,21.9060476 L9.3885,21.9060476 C8.87975,21.9060476 8.567625,21.8770476 8.452125,21.8204286 C8.338,21.7665714 8.2555,21.6699048 8.206,21.5276667 C8.166125,21.4171905 8.141375,21.0388095 8.13175,20.3994286 L8.13175,15.8519524 L10.839125,15.8519524 C12.02575,15.8519524 12.9085,15.9638095 13.487375,16.182 C14.064875,16.4029524 14.496625,16.7288571 14.785375,17.1610952 C15.0755,17.5919524 15.219875,18.1194762 15.219875,18.7436667 C15.219875,19.4769524 15.016375,20.1039048 14.606625,20.6259048 C14.19825,21.1479048 13.70325,21.4917619 13.118875,21.6574762 C12.538625,21.8218095 11.803,21.9060476 10.91475,21.9060476 Z" id="Shape"></path>
                </g>
                <circle id="Oval-5" stroke="#262626" stroke-width="2" cx="27.5" cy="27.5" r="27.5"></circle>
            </g>
        </g>
    </g>
</svg>