<?xml version="1.0" encoding="iso-8859-1"?>
<!-- Generator: Adobe Illustrator 19.0.0, SVG Export Plug-In . SVG Version: 6.00 Build 0)  -->
<svg version="1.1" id="Capa_1" xmlns="http://www.w3.org/2000/svg" xmlns:xlink="http://www.w3.org/1999/xlink" x="0px" y="0px"
	 viewBox="0 0 512.002 512.002" style="enable-background:new 0 0 512.002 512.002;" xml:space="preserve">
<g>
	<g>
		<path d="M502.001,234.844H289.67l44.511-74.078c2.844-4.734,1.313-10.878-3.421-13.722L133.611,28.585
			c-2.274-1.366-4.997-1.771-7.57-1.132c-2.573,0.642-4.787,2.279-6.153,4.553L1.43,229.155c-2.844,4.734-1.313,10.878,3.421,13.722
			l197.148,118.459c1.569,0.942,3.351,1.429,5.151,1.429c0.809,0,1.621-0.099,2.419-0.297c2.573-0.642,4.787-2.279,6.153-4.553
			l46.28-77.022v193.952c0,5.522,4.477,10,10,10h230c5.523,0,10-4.478,10-10v-230C512.001,239.322,507.524,234.844,502.001,234.844z
			 M203.729,339.042L23.724,230.884L131.881,50.878l180.005,108.158L203.729,339.042z M492.001,464.844h-210v-210h210V464.844z"/>
	</g>
</g>
<g>
	<g>
		<path d="M332.001,384.844c-16.542,0-30,13.458-30,30s13.458,30,30,30s30-13.458,30-30S348.543,384.844,332.001,384.844z
			 M332.001,424.844c-5.514,0-10-4.486-10-10c0-5.514,4.487-10,10-10c5.514,0,10,4.486,10,10
			C342.001,420.358,337.515,424.844,332.001,424.844z"/>
	</g>
</g>
<g>
	<g>
		<path d="M442.001,274.844c-16.542,0-30,13.458-30,30s13.458,30,30,30s30-13.458,30-30S458.543,274.844,442.001,274.844z
			 M442.001,314.844c-5.514,0-10-4.486-10-10c0-5.514,4.486-10,10-10c5.514,0,10,4.486,10,10
			C452.001,310.358,447.515,314.844,442.001,314.844z"/>
	</g>
</g>
<g>
	<g>
		<path d="M215.731,263.173c-1.939-7.775-6.789-14.33-13.657-18.456c-4.669-2.806-10.005-4.289-15.433-4.289
			c-10.48,0-20.341,5.576-25.734,14.553c-4.127,6.868-5.333,14.934-3.394,22.709c1.939,7.775,6.789,14.33,13.657,18.456
			c4.669,2.806,10.005,4.289,15.433,4.289c10.48,0,20.341-5.576,25.734-14.553C216.464,279.014,217.67,270.949,215.731,263.173z
			 M195.194,275.581c-1.826,3.039-5.037,4.854-8.59,4.854c-1.798,0-3.573-0.495-5.132-1.433c-2.29-1.375-3.906-3.56-4.552-6.151
			s-0.244-5.28,1.131-7.569c1.826-3.039,5.037-4.854,8.59-4.854c1.798,0,3.573,0.495,5.132,1.433c2.29,1.375,3.906,3.56,4.552,6.151
			S196.57,273.292,195.194,275.581z"/>
	</g>
</g>
<g>
	<g>
		<path d="M183.256,169.244c-4.669-2.805-10.005-4.287-15.432-4.287c-10.48,0-20.341,5.576-25.735,14.552
			c-8.519,14.179-3.915,32.646,10.264,41.167c4.669,2.805,10.005,4.287,15.432,4.287c10.481,0,20.342-5.576,25.735-14.552
			C202.04,196.232,197.436,177.765,183.256,169.244z M176.377,200.111c-1.826,3.038-5.037,4.853-8.591,4.853
			c-1.799,0-3.573-0.495-5.131-1.431c-4.727-2.841-6.261-8.997-3.422-13.723c1.826-3.038,5.038-4.853,8.591-4.853
			c1.799,0,3.573,0.495,5.131,1.431C177.682,189.229,179.216,195.384,176.377,200.111z"/>
	</g>
</g>
<g>
	<g>
		<path d="M178.097,112.231c-1.939-7.774-6.789-14.33-13.657-18.456c-4.669-2.806-10.006-4.289-15.433-4.289
			c-10.48,0-20.34,5.576-25.734,14.552c-4.127,6.869-5.332,14.935-3.394,22.709c1.939,7.775,6.789,14.331,13.657,18.457
			c4.669,2.806,10.005,4.289,15.433,4.289c10.48,0,20.341-5.577,25.734-14.553C178.83,128.072,180.036,120.006,178.097,112.231z
			 M157.559,124.639c-1.826,3.039-5.037,4.854-8.59,4.854c-1.798,0-3.573-0.495-5.132-1.433c-2.289-1.375-3.906-3.56-4.552-6.151
			c-0.646-2.592-0.244-5.28,1.131-7.57c1.826-3.038,5.037-4.853,8.59-4.853c1.799,0,3.573,0.495,5.132,1.433
			c2.29,1.375,3.906,3.56,4.552,6.151C159.336,119.662,158.934,122.35,157.559,124.639z"/>
	</g>
</g>
<g>
</g>
<g>
</g>
<g>
</g>
<g>
</g>
<g>
</g>
<g>
</g>
<g>
</g>
<g>
</g>
<g>
</g>
<g>
</g>
<g>
</g>
<g>
</g>
<g>
</g>
<g>
</g>
<g>
</g>
</svg>
