<?xml version="1.0" encoding="UTF-8"?>
<svg width="34px" height="34px" viewBox="0 0 34 34" version="1.1" xmlns="http://www.w3.org/2000/svg" xmlns:xlink="http://www.w3.org/1999/xlink">
    <!-- Generator: Sketch 44.1 (41455) - http://www.bohemiancoding.com/sketch -->
    <title>Instagram</title>
    <desc>Created with Sketch.</desc>
    <defs></defs>
    <g id="Page-1" stroke="none" stroke-width="1" fill="none" fill-rule="evenodd">
        <g id="Register" transform="translate(-666.000000, -1694.000000)" fill-rule="nonzero" fill="#BEA67C">
            <g id="social-icons" transform="translate(611.000000, 1694.000000)">
                <g id="Instagram" transform="translate(55.000000, 0.000000)">
                    <path d="M23.6210625,11.6394775 C23.3266774,10.8764066 22.7235409,10.2732701 21.96047,9.978885 C21.4401718,9.78606266 20.8905925,9.6841394 20.3357525,9.67757 C19.412995,9.635465 19.136355,9.62661 16.799965,9.62661 C14.463575,9.62661 14.186935,9.635465 13.2641775,9.6775525 C12.7093375,9.6841219 12.1597582,9.78604516 11.63946,9.9788675 C10.8763891,10.2732526 10.2732526,10.8763891 9.9788675,11.63946 C9.78604516,12.1597582 9.6841219,12.7093375 9.6775525,13.2641775 C9.635465,14.186935 9.62661,14.463715 9.62661,16.799965 C9.62661,19.136215 9.6354825,19.412995 9.6775525,20.3357525 C9.6841094,20.8905938 9.78603305,21.4401752 9.9788675,21.96047 C10.2732526,22.7235409 10.8763891,23.3266774 11.63946,23.6210625 C12.1597582,23.8138848 12.7093375,23.9158081 13.2641775,23.9223775 C14.1867075,23.9643775 14.4634525,23.97332 16.799965,23.97332 C19.1364775,23.97332 19.4132225,23.9644475 20.3357525,23.9223775 C20.8905925,23.9158081 21.4401718,23.8138848 21.96047,23.6210625 C22.7235409,23.3266774 23.3266774,22.7235409 23.6210625,21.96047 C23.813897,21.4401752 23.9158206,20.8905938 23.9223775,20.3357525 C23.9643775,19.4130125 23.97332,19.1363725 23.97332,16.799965 C23.97332,14.4635575 23.964465,14.186935 23.9223775,13.2641775 C23.9158061,12.7093434 23.8138829,12.1597701 23.6210625,11.6394775 L23.6210625,11.6394775 Z M16.799965,21.2932125 C14.3184129,21.2932125 12.3067175,19.2815171 12.3067175,16.799965 C12.3067175,14.3184129 14.3184129,12.3067175 16.799965,12.3067175 C19.2815171,12.3067175 21.2932125,14.3184129 21.2932125,16.799965 C21.2932171,17.9916498 20.8198243,19.1345275 19.9771759,19.9771759 C19.1345275,20.8198243 17.9916498,21.2932171 16.799965,21.2932125 L16.799965,21.2932125 Z M21.470715,13.179215 C20.890816,13.179215 20.420715,12.709114 20.420715,12.129215 C20.420715,11.549316 20.890816,11.079215 21.470715,11.079215 C22.050614,11.079215 22.520715,11.549316 22.520715,12.129215 C22.520715,12.709114 22.050614,13.179215 21.470715,13.179215 Z" id="Shape"></path>
                    <circle id="Oval" cx="16.799965" cy="16.799965" r="2.9167075"></circle>
                    <path d="M16.799965,-3.5e-05 C7.5215812,-3.5e-05 -3.5e-05,7.5215812 -3.5e-05,16.799965 C-3.5e-05,26.0783488 7.5215812,33.599965 16.799965,33.599965 C26.0783488,33.599965 33.599965,26.0783488 33.599965,16.799965 C33.5999882,12.3443209 31.8300007,8.07116164 28.6793846,4.92054545 C25.5287684,1.76992926 21.2556091,-5.82066612e-05 16.799965,-3.5e-05 Z M25.4973075,20.40759 C25.4827401,21.133469 25.3452131,21.851625 25.0905725,22.53153 C24.6361087,23.7069006 23.7069531,24.6360562 22.5315825,25.09052 C21.8516775,25.3451606 21.1335215,25.4826876 20.4076425,25.497255 C19.474315,25.53992 19.1763075,25.549965 16.799965,25.549965 C14.4236225,25.549965 14.125615,25.53992 13.192305,25.4973075 C12.466426,25.4827401 11.74827,25.3452131 11.068365,25.0905725 C9.89299441,24.6361087 8.9638388,23.7069531 8.509375,22.5315825 C8.25473442,21.8516775 8.11720738,21.1335215 8.10264,20.4076425 C8.06001,19.474315 8.049965,19.1763075 8.049965,16.799965 C8.049965,14.4236225 8.06001,14.125615 8.1026225,13.192305 C8.11718988,12.466426 8.25471692,11.74827 8.5093575,11.068365 C8.96381721,9.89298778 9.89297338,8.96382524 11.0683475,8.5093575 C11.7482525,8.25471692 12.4664085,8.11718988 13.1922875,8.1026225 C14.125615,8.06001 14.4236225,8.049965 16.799965,8.049965 C19.1763075,8.049965 19.474315,8.06001 20.407625,8.1026225 C21.133504,8.11718988 21.85166,8.25471692 22.531565,8.5093575 C23.7069356,8.9638213 24.6360912,9.89297691 25.090555,11.0683475 C25.3451956,11.7482525 25.4827226,12.4664085 25.49729,13.1922875 C25.53992,14.125615 25.549965,14.4236225 25.549965,16.799965 C25.549965,19.1763075 25.53992,19.474315 25.4973075,20.407625 L25.4973075,20.40759 Z" id="Shape"></path>
                </g>
            </g>
        </g>
    </g>
</svg>