<?xml version="1.0" encoding="UTF-8"?>
<svg width="35px" height="35px" viewBox="0 0 35 35" version="1.1" xmlns="http://www.w3.org/2000/svg" xmlns:xlink="http://www.w3.org/1999/xlink">
    <!-- Generator: Sketch 44.1 (41455) - http://www.bohemiancoding.com/sketch -->
    <title>Twitter</title>
    <desc>Created with Sketch.</desc>
    <defs></defs>
    <g id="Page-1" stroke="none" stroke-width="1" fill="none" fill-rule="evenodd">
        <g id="Register" transform="translate(-721.000000, -1739.000000)" fill-rule="nonzero" fill="#BEA67C">
            <g id="social-icons" transform="translate(611.000000, 1694.000000)">
                <g id="Twitter" transform="translate(110.000000, 45.000000)">
                    <path d="M17.5,0.7 C8.2215,0.7 0.7,8.2215 0.7,17.5 C0.7,26.7785 8.2215,34.3 17.5,34.3 C26.7785,34.3 34.3,26.7785 34.3,17.5 C34.3,8.2215 26.7785,0.7 17.5,0.7 Z M24.33375,14.462 C24.34075,14.6055 24.3425,14.749 24.3425,14.889 C24.3425,19.264 21.01575,24.30575 14.92925,24.30575 C13.06025,24.30575 11.32075,23.75975 9.85775,22.81825 C10.115,22.84975 10.37925,22.862 10.647,22.862 C12.1975,22.862 13.62375,22.33525 14.756,21.44625 C13.30875,21.41825 12.08725,20.46275 11.6655,19.15025 C11.86675,19.187 12.07325,19.208 12.28675,19.208 C12.58775,19.208 12.88175,19.16775 13.15825,19.0925 C11.6445,18.788 10.5035,17.451 10.5035,15.848 L10.5035,15.80775 C10.94975,16.0545 11.46075,16.205 12.00325,16.2225 C11.11425,15.6275 10.5315,14.616 10.5315,13.46625 C10.5315,12.86075 10.69425,12.29025 10.9795,11.802 C12.61225,13.804 15.04825,15.12 17.79925,15.26175 C17.7415,15.0185 17.7135,14.7665 17.7135,14.50575 C17.7135,12.6805 19.194,11.1965 21.02275,11.1965 C21.973,11.1965 22.834,11.599 23.43775,12.243 C24.192,12.0925 24.899,11.8195 25.53775,11.43975 C25.291,12.2115 24.76775,12.86075 24.0835,13.272 C24.75375,13.18975 25.39075,13.013 25.984,12.74875 C25.54125,13.412 24.9795,13.9965 24.33375,14.462 Z" id="Shape"></path>
                </g>
            </g>
        </g>
    </g>
</svg>