<?xml version="1.0" encoding="UTF-8"?>
<svg width="35px" height="35px" viewBox="0 0 35 35" version="1.1" xmlns="http://www.w3.org/2000/svg" xmlns:xlink="http://www.w3.org/1999/xlink">
    <!-- Generator: Sketch 44.1 (41455) - http://www.bohemiancoding.com/sketch -->
    <title>Twitch</title>
    <desc>Created with Sketch.</desc>
    <defs></defs>
    <g id="Page-1" stroke="none" stroke-width="1" fill="none" fill-rule="evenodd">
        <g id="Register" transform="translate(-611.000000, -1739.000000)" fill-rule="nonzero" fill="#BEA67C">
            <g id="social-icons" transform="translate(611.000000, 1694.000000)">
                <g id="Twitch" transform="translate(0.000000, 45.000000)">
                    <path d="M17.5,0 C7.83489583,0 0,7.83489583 0,17.5 C0,27.1651042 7.83489583,35 17.5,35 C27.1651042,35 35,27.1651042 35,17.5 C35,7.83489583 27.1651042,0 17.5,0 Z M17.6725146,14.1730769 L17.6725146,18.3461538 L16.2748832,18.3461538 L16.2748832,14.1730769 L17.6725146,14.1730769 Z M21.5087719,14.1730769 L21.5087719,18.3461538 L20.1111405,18.3461538 L20.1111405,14.1730769 L21.5087719,14.1730769 Z M21.5087719,21.4807692 L23.9473978,19.0384615 L23.9473978,11.3942308 L12.4386259,11.3942308 L12.4386259,21.4807692 L15.5808869,21.4807692 L15.5808869,23.5673077 L17.6725146,21.4807692 L21.5087719,21.4807692 Z M25.3450292,10 L25.3450292,19.7403846 L21.1617738,23.9134615 L18.0195128,23.9134615 L15.927885,26 L13.8362573,26 L13.8362573,23.9134615 L10,23.9134615 L10,12.7788462 L11.0506333,10 L25.3450292,10 Z" id="Shape"></path>
                </g>
            </g>
        </g>
    </g>
</svg>