<?xml version="1.0" encoding="UTF-8"?>
<svg width="35px" height="35px" viewBox="0 0 35 35" version="1.1" xmlns="http://www.w3.org/2000/svg" xmlns:xlink="http://www.w3.org/1999/xlink">
    <!-- Generator: Sketch 44.1 (41455) - http://www.bohemiancoding.com/sketch -->
    <title>VK</title>
    <desc>Created with Sketch.</desc>
    <defs></defs>
    <g id="Page-1" stroke="none" stroke-width="1" fill="none" fill-rule="evenodd">
        <g id="Register" transform="translate(-666.000000, -1739.000000)" fill-rule="nonzero" fill="#BEA67C">
            <g id="social-icons" transform="translate(611.000000, 1694.000000)">
                <g id="VK" transform="translate(55.000000, 45.000000)">
                    <path d="M17.5,0 C27.1651042,0 35,7.83489583 35,17.5 C35,27.1651042 27.1651042,35 17.5,35 C7.83489583,35 0,27.1651042 0,17.5 C0,7.83489583 7.83489583,0 17.5,0 Z M24.2302083,19.7440104 C22.8028646,18.4078125 22.8028646,18.3184896 24.1463542,16.5575521 C24.3377604,16.3059896 24.5583333,16.0161458 24.8080729,15.684375 C26.2901042,13.6773437 26.3848958,13.015625 26.3046875,12.7986979 C26.2591146,12.6619792 26.0166667,12.6091146 25.6630208,12.6091146 L22.4164062,12.6091146 C22.3653646,12.6091146 22.2651042,12.6182292 22.1903646,12.6619792 C22.0955729,12.7184896 22.0153646,12.8643229 21.9880208,12.9117187 C21.9552083,13.0010417 21.4958333,14.2096354 20.9033854,15.2341146 C19.5507812,17.5546875 19.0513021,17.5546875 18.8854167,17.5546875 C18.8106771,17.5546875 18.7395833,17.5328125 18.6776042,17.4945312 C18.2,17.1791667 18.221875,16.4117187 18.2401042,15.7354167 C18.2401042,15.6114583 18.2455729,15.4947917 18.2455729,15.3854167 C18.2455729,14.8822917 18.2619792,14.4557292 18.2783854,14.0783854 C18.33125,12.7494792 18.3184896,12.3611979 17.7169271,12.2171875 C17.4197917,12.1424479 17.2083333,12.0895833 16.3880208,12.0786458 L15.9669271,12.0786458 C15.2104167,12.0786458 14.4484375,12.1096354 14.0255208,12.3210937 C13.8578125,12.403125 13.7229167,12.5398437 13.6627604,12.6291667 C13.8960937,12.6729167 14.2807292,12.7914062 14.5067708,13.103125 C14.8221354,13.5333333 14.8239583,14.4302083 14.8239583,14.5158854 C14.8513021,14.9716146 14.9661458,17.1682292 14.35,17.5109375 C14.2679687,17.5528646 14.1859375,17.5765625 14.0966146,17.5765625 C13.6244792,17.5765625 13.0356771,16.8911458 12.075,15.203125 C11.4825521,14.1677083 11.1216146,13.2471354 11.0231771,13.015625 C10.9393229,12.8169271 10.8190104,12.5927083 10.4507812,12.5927083 L7.6890625,12.5927083 C7.38098958,12.5927083 7.0984375,12.7695312 7.23515625,13.0994792 C7.25338542,13.146875 9.42265625,18.2473958 11.8325521,20.7903646 C13.8013021,22.8666667 16.0234375,23.0161458 16.45,23.0161458 C16.5083333,23.0161458 17.7023437,23.0161458 17.7023437,23.0161458 C17.9338542,23.0161458 18.2619792,22.7773437 18.2619792,22.3617187 C18.2619792,21.0309896 18.7104167,20.5315104 19.0604167,20.4184896 C19.1151042,20.4002604 19.1752604,20.3911458 19.2335937,20.3911458 C19.6966146,20.3911458 20.1559896,20.9234375 20.6864583,21.5395833 C21.0419271,21.9533854 21.4065104,22.378125 21.7765625,22.6369792 C22.2578125,22.96875 22.6552083,23.0179687 22.8447917,23.0179687 C22.9213542,23.0179687 25.5791667,23.0179687 25.5791667,23.0179687 C25.7286458,23.0070312 26.1661458,22.8830729 26.29375,22.6315104 C26.3703125,22.4802083 26.3338542,22.2778646 26.1789062,22.0171875 C26.1752604,22.0098958 26.1697917,21.9953125 26.1588542,21.9807292 C25.7778646,21.2716146 24.2302083,19.7440104 24.2302083,19.7440104 Z" id="Shape"></path>
                </g>
            </g>
        </g>
    </g>
</svg>