<?xml version="1.0" encoding="UTF-8"?>
<svg width="60px" height="55px" viewBox="0 0 60 55" version="1.1" xmlns="http://www.w3.org/2000/svg" xmlns:xlink="http://www.w3.org/1999/xlink">
    <!-- Generator: Sketch 44.1 (41455) - http://www.bohemiancoding.com/sketch -->
    <title>009-luxury</title>
    <desc>Created with Sketch.</desc>
    <defs></defs>
    <g id="Page-1" stroke="none" stroke-width="1" fill="none" fill-rule="evenodd">
        <g id="009-luxury" fill-rule="nonzero" fill="#000000">
            <path d="M59.972,18.164 C59.979,18.123 59.983,18.083 59.985,18.041 C59.987,17.992 59.986,17.945 59.982,17.896 C59.978,17.854 59.972,17.814 59.962,17.773 C59.951,17.725 59.936,17.679 59.918,17.633 C59.909,17.609 59.907,17.584 59.896,17.561 C59.888,17.544 59.874,17.531 59.865,17.514 C59.856,17.497 59.852,17.479 59.842,17.462 L49.842,1.462 C49.796,1.389 49.742,1.323 49.681,1.265 C49.68,1.264 49.679,1.264 49.678,1.263 C49.592,1.182 49.49,1.124 49.381,1.078 C49.367,1.072 49.358,1.06 49.343,1.054 C49.332,1.05 49.32,1.052 49.309,1.049 C49.208,1.015 49.104,0.992 48.995,0.992 L10.995,0.992 C10.887,0.992 10.784,1.015 10.685,1.048 C10.674,1.051 10.663,1.049 10.653,1.053 C10.638,1.058 10.629,1.07 10.615,1.076 C10.511,1.119 10.413,1.175 10.328,1.251 C10.323,1.256 10.316,1.259 10.311,1.263 C10.249,1.321 10.194,1.388 10.148,1.461 L0.148,17.461 C0.138,17.477 0.134,17.496 0.125,17.513 C0.116,17.53 0.102,17.543 0.094,17.56 C0.083,17.583 0.081,17.608 0.071,17.632 C0.053,17.678 0.038,17.724 0.027,17.772 C0.018,17.813 0.011,17.854 0.007,17.896 C1.49272955e-15,17.945 -0.001,17.993 0.001,18.041 C0.003,18.083 0.007,18.123 0.014,18.164 C0.022,18.212 0.035,18.259 0.051,18.306 C0.064,18.345 0.078,18.383 0.096,18.421 C0.105,18.439 0.108,18.459 0.118,18.477 C0.134,18.506 0.158,18.528 0.176,18.555 C0.19,18.576 0.198,18.599 0.215,18.619 L29.204,54.605 C29.206,54.608 29.208,54.61 29.21,54.612 L29.215,54.619 C29.218,54.623 29.223,54.624 29.226,54.628 C29.308,54.727 29.41,54.802 29.521,54.862 C29.551,54.878 29.579,54.892 29.61,54.905 C29.731,54.956 29.859,54.992 29.993,54.992 C30.107,54.992 30.222,54.972 30.336,54.931 C30.353,54.925 30.364,54.911 30.381,54.904 C30.432,54.883 30.472,54.849 30.518,54.82 C30.594,54.772 30.665,54.722 30.724,54.657 C30.738,54.642 30.759,54.635 30.772,54.619 L59.772,18.619 C59.788,18.599 59.796,18.575 59.811,18.555 C59.83,18.528 59.853,18.506 59.869,18.477 C59.879,18.459 59.882,18.439 59.891,18.421 C59.909,18.383 59.923,18.346 59.936,18.306 C59.95,18.259 59.964,18.213 59.972,18.164 Z M32.095,2.993 L47.554,2.993 L42.694,16.038 L32.095,2.993 Z M40.892,16.993 L19.095,16.993 L29.993,3.58 L40.892,16.993 Z M17.222,16.125 L12.423,2.993 L27.892,2.993 L17.222,16.125 Z M41.593,18.993 L29.818,50.599 L18.269,18.993 L41.593,18.993 Z M49.221,4.246 L57.188,16.994 L44.472,16.994 L49.221,4.246 Z M10.756,4.259 L15.409,16.993 L2.798,16.993 L10.756,4.259 Z M16.14,18.993 L26.979,48.657 L3.083,18.993 L16.14,18.993 Z M32.39,49.423 L43.727,18.993 L56.903,18.993 L32.39,49.423 Z" id="Shape"></path>
        </g>
    </g>
</svg>